<svg width="639" height="162" viewBox="0 0 639 162" fill="none" xmlns="http://www.w3.org/2000/svg">
<g filter="url(#filter0_ddiii_17_2819)">
<g clip-path="url(#clip0_17_2819)">
<rect x="9" width="144" height="144" rx="36" fill="#FE4202"/>
<rect width="144" height="144" transform="translate(9)" fill="url(#paint0_linear_17_2819)"/>
<g filter="url(#filter1_d_17_2819)">
<path opacity="0.5" d="M106.125 28.125C117.309 28.125 126.375 37.1912 126.375 48.375C126.375 59.5588 117.309 68.625 106.125 68.625H85.875L85.875 48.375C85.875 37.1912 94.9412 28.125 106.125 28.125Z" fill="url(#paint1_linear_17_2819)"/>
<path d="M38.625 48.375C38.625 37.1912 47.6912 28.125 58.875 28.125C70.0588 28.125 79.125 37.1912 79.125 48.375V68.625H58.875C47.6912 68.625 38.625 59.5588 38.625 48.375Z" fill="url(#paint2_linear_17_2819)"/>
<path d="M58.875 115.875C47.6912 115.875 38.625 106.809 38.625 95.625C38.625 84.4412 47.6912 75.375 58.875 75.375H79.125V95.625C79.125 106.809 70.0588 115.875 58.875 115.875Z" fill="url(#paint3_linear_17_2819)"/>
<path d="M126.375 95.625C126.375 106.809 117.309 115.875 106.125 115.875C94.9412 115.875 85.875 106.809 85.875 95.625V75.375L106.125 75.375C117.309 75.375 126.375 84.4412 126.375 95.625Z" fill="url(#paint4_linear_17_2819)"/>
</g>
</g>
<rect x="12" y="3" width="138" height="138" rx="33" stroke="url(#paint5_linear_17_2819)" stroke-width="6"/>
</g>
<path d="M178.002 58V8.32H223.887V19.084H188.835V27.778H217.056V38.542H188.835V58H178.002ZM237.801 58C235.961 58 234.259 57.54 232.695 56.62C231.131 55.7 229.889 54.458 228.969 52.894C228.049 51.33 227.589 49.628 227.589 47.788V18.532C227.589 16.646 228.049 14.944 228.969 13.426C229.889 11.862 231.131 10.62 232.695 9.7C234.259 8.78 235.961 8.32 237.801 8.32H267.057C268.897 8.32 270.576 8.78 272.094 9.7C273.658 10.62 274.9 11.862 275.82 13.426C276.786 14.944 277.269 16.646 277.269 18.532V47.788C277.269 49.628 276.786 51.33 275.82 52.894C274.9 54.458 273.658 55.7 272.094 56.62C270.576 57.54 268.897 58 267.057 58H237.801ZM238.284 47.236H266.436V19.084H238.284V47.236ZM294.942 58C293.102 58 291.4 57.54 289.836 56.62C288.272 55.7 287.03 54.458 286.11 52.894C285.19 51.33 284.73 49.628 284.73 47.788V18.532C284.73 16.646 285.19 14.944 286.11 13.426C287.03 11.862 288.272 10.62 289.836 9.7C291.4 8.78 293.102 8.32 294.942 8.32H324.198C326.038 8.32 327.717 8.78 329.235 9.7C330.799 10.62 332.041 11.862 332.961 13.426C333.927 14.944 334.41 16.646 334.41 18.532V47.788C334.41 49.628 333.927 51.33 332.961 52.894C332.041 54.458 330.799 55.7 329.235 56.62C327.717 57.54 326.038 58 324.198 58H294.942ZM295.425 47.236H323.577V19.084H295.425V47.236ZM342.147 58V8.32H381.546C383.432 8.32 385.134 8.78 386.652 9.7C388.216 10.62 389.458 11.862 390.378 13.426C391.344 14.944 391.827 16.646 391.827 18.532V47.788C391.827 49.628 391.344 51.33 390.378 52.894C389.458 54.458 388.216 55.7 386.652 56.62C385.134 57.54 383.432 58 381.546 58H342.147ZM352.773 47.236H380.994V19.084H352.773V47.236ZM409.765 58C407.879 58 406.154 57.54 404.59 56.62C403.072 55.7 401.853 54.481 400.933 52.963C400.013 51.399 399.553 49.674 399.553 47.788V18.532C399.553 16.646 400.013 14.944 400.933 13.426C401.853 11.862 403.072 10.62 404.59 9.7C406.154 8.78 407.879 8.32 409.765 8.32H449.095V19.084H412.525C411.789 19.084 411.214 19.268 410.8 19.636C410.432 20.004 410.248 20.579 410.248 21.361V44.959C410.248 45.695 410.432 46.27 410.8 46.684C411.214 47.052 411.789 47.236 412.525 47.236H449.095V58H409.765ZM466.364 58C464.524 58 462.822 57.54 461.258 56.62C459.694 55.7 458.452 54.458 457.532 52.894C456.612 51.33 456.152 49.628 456.152 47.788V18.532C456.152 16.646 456.612 14.944 457.532 13.426C458.452 11.862 459.694 10.62 461.258 9.7C462.822 8.78 464.524 8.32 466.364 8.32H495.62C497.46 8.32 499.139 8.78 500.657 9.7C502.221 10.62 503.463 11.862 504.383 13.426C505.349 14.944 505.832 16.646 505.832 18.532V47.788C505.832 49.628 505.349 51.33 504.383 52.894C503.463 54.458 502.221 55.7 500.657 56.62C499.139 57.54 497.46 58 495.62 58H466.364ZM466.847 47.236H494.999V19.084H466.847V47.236ZM523.504 58C521.664 58 519.962 57.54 518.398 56.62C516.834 55.7 515.592 54.458 514.672 52.894C513.752 51.33 513.292 49.628 513.292 47.788V43.165H523.987V47.236H552.139V38.542H523.504C521.664 38.542 519.962 38.082 518.398 37.162C516.834 36.242 515.592 35.023 514.672 33.505C513.752 31.941 513.292 30.216 513.292 28.33V18.532C513.292 16.646 513.752 14.944 514.672 13.426C515.592 11.862 516.834 10.62 518.398 9.7C519.962 8.78 521.664 8.32 523.504 8.32H552.76C554.6 8.32 556.279 8.78 557.797 9.7C559.361 10.62 560.603 11.862 561.523 13.426C562.489 14.944 562.972 16.646 562.972 18.532V23.155H552.139V19.084H523.987V27.778H552.76C554.6 27.778 556.279 28.238 557.797 29.158C559.361 30.078 560.603 31.32 561.523 32.884C562.489 34.402 562.972 36.104 562.972 37.99V47.788C562.972 49.628 562.489 51.33 561.523 52.894C560.603 54.458 559.361 55.7 557.797 56.62C556.279 57.54 554.6 58 552.76 58H523.504ZM587.545 58V19.084H568.087V8.32H617.767V19.084H598.309V58H587.545ZM187.938 137C186.098 137 184.396 136.54 182.832 135.62C181.268 134.7 180.026 133.458 179.106 131.894C178.186 130.33 177.726 128.628 177.726 126.788V122.165H188.421V126.236H216.573V117.542H187.938C186.098 117.542 184.396 117.082 182.832 116.162C181.268 115.242 180.026 114.023 179.106 112.505C178.186 110.941 177.726 109.216 177.726 107.33V97.532C177.726 95.646 178.186 93.944 179.106 92.426C180.026 90.862 181.268 89.62 182.832 88.7C184.396 87.78 186.098 87.32 187.938 87.32H217.194C219.034 87.32 220.713 87.78 222.231 88.7C223.795 89.62 225.037 90.862 225.957 92.426C226.923 93.944 227.406 95.646 227.406 97.532V102.155H216.573V98.084H188.421V106.778H217.194C219.034 106.778 220.713 107.238 222.231 108.158C223.795 109.078 225.037 110.32 225.957 111.884C226.923 113.402 227.406 115.104 227.406 116.99V126.788C227.406 128.628 226.923 130.33 225.957 131.894C225.037 133.458 223.795 134.7 222.231 135.62C220.713 136.54 219.034 137 217.194 137H187.938ZM235.143 137V87.32H281.028V98.084H245.976V106.778H274.197V117.542H245.976V126.236H281.028V137H235.143ZM326.404 137L311.983 119.819H325.99L337.444 133.343V137H326.404ZM287.833 137V87.389H327.232C329.118 87.389 330.82 87.849 332.338 88.769C333.902 89.689 335.144 90.931 336.064 92.495C337.03 94.059 337.513 95.761 337.513 97.601V110.435C337.513 112.275 337.03 113.977 336.064 115.541C335.144 117.105 333.902 118.347 332.338 119.267C330.82 120.187 329.118 120.647 327.232 120.647L298.528 120.716V137H287.833ZM298.528 109.883H326.68V98.084H298.528V109.883ZM369.872 137L341.099 87.32H353.519L374.357 123.407L395.195 87.32H407.546L378.773 137H369.872ZM410.025 137V87.32H420.582V137H410.025ZM436.719 137C434.833 137 433.108 136.54 431.544 135.62C430.026 134.7 428.807 133.481 427.887 131.963C426.967 130.399 426.507 128.674 426.507 126.788V97.532C426.507 95.646 426.967 93.944 427.887 92.426C428.807 90.862 430.026 89.62 431.544 88.7C433.108 87.78 434.833 87.32 436.719 87.32H476.049V98.084H439.479C438.743 98.084 438.168 98.268 437.754 98.636C437.386 99.004 437.202 99.579 437.202 100.361V123.959C437.202 124.695 437.386 125.27 437.754 125.684C438.168 126.052 438.743 126.236 439.479 126.236H476.049V137H436.719ZM483.381 137V87.32H529.266V98.084H494.214V106.778H522.435V117.542H494.214V126.236H529.266V137H483.381ZM546.145 137C544.305 137 542.603 136.54 541.039 135.62C539.475 134.7 538.233 133.458 537.313 131.894C536.393 130.33 535.933 128.628 535.933 126.788V122.165H546.628V126.236H574.78V117.542H546.145C544.305 117.542 542.603 117.082 541.039 116.162C539.475 115.242 538.233 114.023 537.313 112.505C536.393 110.941 535.933 109.216 535.933 107.33V97.532C535.933 95.646 536.393 93.944 537.313 92.426C538.233 90.862 539.475 89.62 541.039 88.7C542.603 87.78 544.305 87.32 546.145 87.32H575.401C577.241 87.32 578.92 87.78 580.438 88.7C582.002 89.62 583.244 90.862 584.164 92.426C585.13 93.944 585.613 95.646 585.613 97.532V102.155H574.78V98.084H546.628V106.778H575.401C577.241 106.778 578.92 107.238 580.438 108.158C582.002 109.078 583.244 110.32 584.164 111.884C585.13 113.402 585.613 115.104 585.613 116.99V126.788C585.613 128.628 585.13 130.33 584.164 131.894C583.244 133.458 582.002 134.7 580.438 135.62C578.92 136.54 577.241 137 575.401 137H546.145Z" fill="#163152"/>
<defs>
<filter id="filter0_ddiii_17_2819" x="0" y="-9" width="162" height="171" filterUnits="userSpaceOnUse" color-interpolation-filters="sRGB">
<feFlood flood-opacity="0" result="BackgroundImageFix"/>
<feColorMatrix in="SourceAlpha" type="matrix" values="0 0 0 0 0 0 0 0 0 0 0 0 0 0 0 0 0 0 127 0" result="hardAlpha"/>
<feOffset dy="3"/>
<feGaussianBlur stdDeviation="1.5"/>
<feComposite in2="hardAlpha" operator="out"/>
<feColorMatrix type="matrix" values="0 0 0 0 0.162923 0 0 0 0 0.162923 0 0 0 0 0.162923 0 0 0 0.08 0"/>
<feBlend mode="normal" in2="BackgroundImageFix" result="effect1_dropShadow_17_2819"/>
<feColorMatrix in="SourceAlpha" type="matrix" values="0 0 0 0 0 0 0 0 0 0 0 0 0 0 0 0 0 0 127 0" result="hardAlpha"/>
<feMorphology radius="3" operator="erode" in="SourceAlpha" result="effect2_dropShadow_17_2819"/>
<feOffset dy="9"/>
<feGaussianBlur stdDeviation="6"/>
<feComposite in2="hardAlpha" operator="out"/>
<feColorMatrix type="matrix" values="0 0 0 0 0.164706 0 0 0 0 0.164706 0 0 0 0 0.164706 0 0 0 0.14 0"/>
<feBlend mode="normal" in2="effect1_dropShadow_17_2819" result="effect2_dropShadow_17_2819"/>
<feBlend mode="normal" in="SourceGraphic" in2="effect2_dropShadow_17_2819" result="shape"/>
<feColorMatrix in="SourceAlpha" type="matrix" values="0 0 0 0 0 0 0 0 0 0 0 0 0 0 0 0 0 0 127 0" result="hardAlpha"/>
<feOffset dy="-9"/>
<feGaussianBlur stdDeviation="4.5"/>
<feComposite in2="hardAlpha" operator="arithmetic" k2="-1" k3="1"/>
<feColorMatrix type="matrix" values="0 0 0 0 0 0 0 0 0 0 0 0 0 0 0 0 0 0 0.1 0"/>
<feBlend mode="normal" in2="shape" result="effect3_innerShadow_17_2819"/>
<feColorMatrix in="SourceAlpha" type="matrix" values="0 0 0 0 0 0 0 0 0 0 0 0 0 0 0 0 0 0 127 0" result="hardAlpha"/>
<feOffset dy="9"/>
<feGaussianBlur stdDeviation="4.5"/>
<feComposite in2="hardAlpha" operator="arithmetic" k2="-1" k3="1"/>
<feColorMatrix type="matrix" values="0 0 0 0 1 0 0 0 0 1 0 0 0 0 1 0 0 0 0.1 0"/>
<feBlend mode="normal" in2="effect3_innerShadow_17_2819" result="effect4_innerShadow_17_2819"/>
<feColorMatrix in="SourceAlpha" type="matrix" values="0 0 0 0 0 0 0 0 0 0 0 0 0 0 0 0 0 0 127 0" result="hardAlpha"/>
<feMorphology radius="3" operator="erode" in="SourceAlpha" result="effect5_innerShadow_17_2819"/>
<feOffset/>
<feComposite in2="hardAlpha" operator="arithmetic" k2="-1" k3="1"/>
<feColorMatrix type="matrix" values="0 0 0 0 0 0 0 0 0 0 0 0 0 0 0 0 0 0 0.2 0"/>
<feBlend mode="normal" in2="effect4_innerShadow_17_2819" result="effect5_innerShadow_17_2819"/>
</filter>
<filter id="filter1_d_17_2819" x="29.625" y="15.75" width="105.75" height="126" filterUnits="userSpaceOnUse" color-interpolation-filters="sRGB">
<feFlood flood-opacity="0" result="BackgroundImageFix"/>
<feColorMatrix in="SourceAlpha" type="matrix" values="0 0 0 0 0 0 0 0 0 0 0 0 0 0 0 0 0 0 127 0" result="hardAlpha"/>
<feMorphology radius="4.5" operator="erode" in="SourceAlpha" result="effect1_dropShadow_17_2819"/>
<feOffset dy="6.75"/>
<feGaussianBlur stdDeviation="6.75"/>
<feComposite in2="hardAlpha" operator="out"/>
<feColorMatrix type="matrix" values="0 0 0 0 0.141176 0 0 0 0 0.141176 0 0 0 0 0.141176 0 0 0 0.1 0"/>
<feBlend mode="normal" in2="BackgroundImageFix" result="effect1_dropShadow_17_2819"/>
<feBlend mode="normal" in="SourceGraphic" in2="effect1_dropShadow_17_2819" result="shape"/>
</filter>
<linearGradient id="paint0_linear_17_2819" x1="72" y1="1.78814e-06" x2="78" y2="144" gradientUnits="userSpaceOnUse">
<stop stop-color="white" stop-opacity="0"/>
<stop offset="1" stop-color="white" stop-opacity="0.12"/>
</linearGradient>
<linearGradient id="paint1_linear_17_2819" x1="106.125" y1="28.125" x2="106.125" y2="68.625" gradientUnits="userSpaceOnUse">
<stop stop-color="white" stop-opacity="0.8"/>
<stop offset="1" stop-color="white" stop-opacity="0.5"/>
</linearGradient>
<linearGradient id="paint2_linear_17_2819" x1="82.5" y1="28.125" x2="82.5" y2="115.875" gradientUnits="userSpaceOnUse">
<stop stop-color="white" stop-opacity="0.8"/>
<stop offset="1" stop-color="white" stop-opacity="0.5"/>
</linearGradient>
<linearGradient id="paint3_linear_17_2819" x1="82.5" y1="28.125" x2="82.5" y2="115.875" gradientUnits="userSpaceOnUse">
<stop stop-color="white" stop-opacity="0.8"/>
<stop offset="1" stop-color="white" stop-opacity="0.5"/>
</linearGradient>
<linearGradient id="paint4_linear_17_2819" x1="82.5" y1="28.125" x2="82.5" y2="115.875" gradientUnits="userSpaceOnUse">
<stop stop-color="white" stop-opacity="0.8"/>
<stop offset="1" stop-color="white" stop-opacity="0.5"/>
</linearGradient>
<linearGradient id="paint5_linear_17_2819" x1="81" y1="0" x2="81" y2="144" gradientUnits="userSpaceOnUse">
<stop stop-color="white" stop-opacity="0.12"/>
<stop offset="1" stop-color="white" stop-opacity="0"/>
</linearGradient>
<clipPath id="clip0_17_2819">
<rect x="9" width="144" height="144" rx="36" fill="white"/>
</clipPath>
</defs>
</svg>
